<svg viewBox="0 0 35 38" fill="none" xmlns="http://www.w3.org/2000/svg">
  <path d="M6.91 20.72v-2.26c6.68-.92 13.42-1.36 20.17-1.33 0 .6 0 1.21-.06 1.82a25.52 25.52 0 0 1 6-1.82 16.67 16.67 0 0 0-31.99 3.26l5.88.33ZM28.08 24.23c-1.16 1.28-1.39 1.2-1.39 3.45v9.18A16.64 16.64 0 0 0 34.16 23a17.3 17.3 0 0 0-.32-3.1 33.1 33.1 0 0 0-5.76 4.33ZM7.2 25.72s-3.79-1.44-5.19-1.83a8.54 8.54 0 0 0-1.17-.28 16.65 16.65 0 0 0 8.68 14L7.2 25.72Z" fill="#FDC305" />
  <path d="M27.13 17.12A89.8 89.8 0 0 0 25.73.65s-.14-1.29-.89-.24c-.59 1.25-1 2.58-1.2 3.94a70.34 70.34 0 0 0-12.77.34C10.08 2 8.7.75 8.02 1c-.67.25-.72 3.31-.72 3.31l-.33 14.1c6.68-.9 13.42-1.34 20.16-1.29Z" fill="#F06351" />
  <path d="M13.25 14c0-.09 1 .68 1.41.92.41.24.61.42.61.59 0 .17-.27.34-.63.34s-.9-.12-1-.27h1.24A8.34 8.34 0 0 1 13.24 14ZM20.73 14.11l-1.09 1.33c0 .06-.17.35.18.3.41-.06.82-.16 1.22-.29.11 0 .07-.19-.1-.17-.19.02-.7.05-1 .11l.83-1.26s.07-.13-.04-.02ZM17.6 20.2c.45-.2.84-.56 1.08-1 .28-.65 0-.91-.44-1-.6-.11-1.22.01-1.74.34-.39.36-.34.72-.05 1 .35.27.73.49 1.14.66Z" fill="#000" />
  <path d="M17.2 21.45c-.12.23-.28.43-.47.6-.28.23-.63.36-1 .38a2.15 2.15 0 0 1-1.47-.43 2.3 2.3 0 0 1-.53-.44c-.1-.11-.22-.2-.36-.26 0 0 .75 4.1 2.57 4.75 1.82.65 2.14-.75 2.2-1.13a5.61 5.61 0 0 0-.82-3.23c-.02-.31-.03-.11-.13-.24Z" fill="#F06351" />
  <path d="M15.55 22.59a3.44 3.44 0 0 1-2.36-1.47.14.14 0 0 1 .03-.15.14.14 0 0 1 .2 0c.5.7 1.26 1.16 2.11 1.3a2.1 2.1 0 0 0 1.63-1l.14-.19.1.21s.37.76 1 .8c.63.04 1.05-.41 1.61-1.28a.14.14 0 0 1 .2 0 .15.15 0 0 1 .05.2c-.64 1-1.27 1.44-1.88 1.4a1.55 1.55 0 0 1-1.12-.76 2.26 2.26 0 0 1-1.7.94Z" fill="#000" />
  <path d="M27.08 18.92a58.62 58.62 0 0 0-5.07 5.19A31.63 31.63 0 0 1 16.72 29c-.22-.53-1.62-1.51-1.62-1.51s-3.13-2.14-5.18-3.82a34.14 34.14 0 0 1-3.13-3l-2-.11c2.9 4.2 7.12 7.3 12 8.8.86-.14 3.27-1.86 5.07-3.26a58.13 58.13 0 0 0 5.94-5.89c.5-.59.89-1.27 1.14-2-1.1.39-1.86.71-1.86.71Z" fill="#F06351" />
</svg>